<svg xmlns="http://www.w3.org/2000/svg" viewBox="0 0 396.02 273.39"><defs><style>.cls-1{fill:#ffd80e;}</style></defs><title>valle_icon</title><g id="Camada_2" data-name="Camada 2"><g id="Camada_1-2" data-name="Camada 1"><path class="cls-1" d="M396,14.67a14.69,14.69,0,0,1-14.68,14.68H269a17.06,17.06,0,0,0-4,0H50.81l21,36.31,33.59,58.21,35.45,61.4,16.92,29.32.1.14.08-.14,16.92-29.32,35.44-61.4L239.13,74l0,0,.93-1.61,0,0a14.67,14.67,0,0,1,25.06,15.2l-21,36.39-35.44,61.4-16.92,29.32-17,29.47-1.51,2.6-15.43,26.73-15.43-26.73-1.5-2.58-17-29.49L107,185.27l-35.46-61.4L37.91,65.66l-21-36.31L0,0H381.34A14.67,14.67,0,0,1,396,14.67Z"/></g></g></svg>